/* XPM */
static char * dragitem_cur_xpm[] = {
"24 24 3 1",
"-	s None  c none",
" 	c #FFFFFFFFFFFF",
".	c #000000000000",
"-......................-",
"..                    ..",
".                      .",
".                      .",
".  ..     ..........   .",
". ....   ............  .",
". ....   ............  .",
". .... .. ...........  .",
". .... . . ..........  .",
".  ..  .  . ........   .",
".      .   .           .",
".      .    .          .",
"..     .     .        ..",
"-.......      .........-",
"-------.       .--------",
"-------.        .-------",
"-------.     ....-------",
"-------.  .  .----------",
"-------. .-.  .---------",
"--------.--.  .---------",
"------------.  .--------",
"------------.  .--------",
"-------------..---------",
"------------------------"};
