/* XPM */
static char * dragfile_cur_xpm[] = {
"24 24 3 1",
"-	s None  c none",
" 	c #000000000000",
".	c #FFFFFFFFFFFF",
"          --------------",
" ........       --------",
"  ............. --------",
"- ............ ---------",
"- ..      .... ---------",
"-- ......   .  ---------",
"-- .......... ----------",
"-- ....  .... ----------",
"-- .    . ... ----------",
"-- .... .. .. ----------",
"-- .... ... . ----------",
"-- .... .... -----------",
"- ..    ..... ----------",
"- ..... ...... ---------",
"- ..... ....... --------",
" ..     ........ -------",
" ...... .....   --------",
" ...... .. .. ----------",
"-   ... . . .. ---------",
"---   .. .. .. ---------",
"-----   .... .. --------",
"------------ .. --------",
"-------------  ---------",
"------------------------"};
