/* XPM */
static char * h_split_xpm[] = {
"16 16 3 1",
".      s None  c none",
" 	c #000000000000",
"X	c #FFFFFFFFFFFF",
"          ......",
" XXXXXXXX ......",
" XXXXXXXX ......",
"       XX ......",
"...... XX ......",
"...... XX ......",
"...  . XX .  ...",
".. X . XX . X ..",
". XX   XX   XX .",
" XXXXXXXXXXXXXX ",
". XX   XX   XX .",
".. X . XX . X ..",
"...  . XX .  ...",
"...... XX ......",
".......  .......",
"................"};
