/* XPM */
static char * std_arrow_xpm[] = {
"16 16 3 1",
" 	c #000000000000",
".	s None  c none",
"-	c #FFFFFFFFFFFF",
"  ..............",
" - .............",
" -- ............",
" --- ...........",
" ---- ..........",
" ----- .........",
" ------ ........",
" ------- .......",
" -------- ......",
" -----    ......",
" -- -- .........",
" - . -- ........",
"  .. -- ........",
"..... -- .......",
"..... -- .......",
"......  ........"};
