/* XPM */
static char * text_cur_xpm[] = {
"16 16 3 1",
" 	s None  c none",
".	c #000000000000",
"-      c #FFFFFFFFFFFF",
"    ... ...     ",
"   .---.---.    ",
"    ..---..     ",
"      .-.       ",
"      .-.       ",
"      .-.       ",
"      .-.       ",
"      .-.       ",
"      .-.       ",
"      .-.       ",
"      .-.       ",
"      .-.       ",
"      .-.       ",
"    ..---..     ",
"   .---.---.    ",
"    ... ...     "};
