/* XPM */
static char * xsw_scanner_lock_xpm[] = {
"16 16 2 1",
" 	s None  c none",
".	c #FFFFFFFFFFFF",
"    ..    ..    ",
"   ..      ..   ",
"  ..        ..  ",
" ..          .. ",
" .            . ",
" .            . ",
" .            . ",
"..     ..     ..",
"..     ..     ..",
" .            . ",
" .            . ",
" .            . ",
" ..          .. ",
"  ..        ..  ",
"   ..      ..   ",
"    ..    ..    "};
