/* XPM */
static char * zoom_xpm[] = {
"16 16 3 1",
" 	c #000000000000",
".	c #FFFFFFFFFFFF",
"X	s None  c none",
"                ",
" .............. ",
" ..          .. ",
" . .  XXXX  . . ",
" .  .      .  . ",
" .   ......   . ",
" . X .    . X . ",
" . X . XX . X . ",
" . X . XX . X . ",
" . X .    . X . ",
" .   ......   . ",
" .  .      .  . ",
" . .  XXXX  . . ",
" ..          .. ",
" .............. ",
"                "};
